<svg xmlns="http://www.w3.org/2000/svg" viewBox="0 0 512 512" role="img" aria-label="Ecommerce OS">
  <defs>
    <linearGradient id="bg" x1="96" y1="72" x2="416" y2="440" gradientUnits="userSpaceOnUse">
      <stop stop-color="#17633f"/>
      <stop offset="1" stop-color="#0b4329"/>
    </linearGradient>
  </defs>
  <rect x="16" y="16" width="480" height="480" rx="112" fill="url(#bg)"/>
  <path fill="#fff" d="M256 342c-10-99 43-191 159-222 4 115-46 194-147 225l-12-3z"/>
  <path fill="#fff" d="M250 352c-83-8-143-69-148-171 103 5 161 66 148 171z"/>
  <path d="M250 389c8-92 48-165 125-231M249 382c-17-69-52-119-111-165" fill="none" stroke="#0d4e30" stroke-width="13" stroke-linecap="round"/>
  <path d="M251 382c8-36 12-58 11-81" fill="none" stroke="#fff" stroke-width="18" stroke-linecap="round"/>
  <circle cx="292" cy="383" r="17" fill="#f58220"/>
</svg>
