<svg xmlns="http://www.w3.org/2000/svg" viewBox="0 0 512 512" role="img" aria-label="Khaas Food">
  <circle cx="256" cy="256" r="256" fill="#1a4d2e"/>
  <path fill="#ffffff" d="M256 96c-8 72-48 112-96 128 24 8 48 8 72 0-16 56-56 96-112 112 8-64 40-112 96-136-40-16-72-48-88-96 8 32 32 56 64 72 8-56 40-96 88-112-24 16-40 40-48 72 16-8 32-12 48-12 0-16 8-32 24-40z"/>
  <text x="256" y="430" text-anchor="middle" fill="#f58220" font-family="Arial, sans-serif" font-size="52" font-weight="700">Khaas Food</text>
</svg>
